<svg xmlns="http://www.w3.org/2000/svg" width="12.426" height="21.081" viewBox="0 0 14.426 23.081">
  <path id="Icon_metro-location" data-name="Icon metro-location" d="M15.568,1.928A7.213,7.213,0,0,0,8.355,9.141c0,7.213,7.213,15.868,7.213,15.868S22.78,16.354,22.78,9.141a7.213,7.213,0,0,0-7.213-7.213Zm0,11.631a4.418,4.418,0,1,1,4.418-4.418A4.418,4.418,0,0,1,15.568,13.559ZM12.773,9.141a2.795,2.795,0,1,1,2.795,2.795A2.795,2.795,0,0,1,12.773,9.141Z" transform="translate(-8.355 -1.928)" fill="#dedede"/>
</svg>
