<svg id="_Trailing_icon_3" data-name="ðŸ“Trailing icon 3" xmlns="http://www.w3.org/2000/svg" width="32" height="32" viewBox="0 0 32 32">
  <rect id="Boundary" width="32" height="32" fill="none"/>
  <path id="_Color" data-name=" â†³Color" d="M22.87,25h0l-7.146-7.132V16.738l-.386-.4a9.305,9.305,0,1,1,1-1l.4.386h1.129L25,22.87,22.87,25ZM9.291,2.859a6.432,6.432,0,1,0,6.432,6.432A6.439,6.439,0,0,0,9.291,2.859Z" transform="translate(4 4)" fill="hsl(233.8, 20.2%, 37.8%)"/>
  <path id="_Color-2" data-name=" â†³Color" d="M22.87,25h0l-7.146-7.132V16.738l-.386-.4a9.305,9.305,0,1,1,1-1l.4.386h1.129L25,22.87,22.87,25ZM9.291,2.859a6.432,6.432,0,1,0,6.432,6.432A6.439,6.439,0,0,0,9.291,2.859Z" transform="translate(4 4)" fill="none"/>
</svg>
