<svg xmlns="http://www.w3.org/2000/svg" xmlns:xlink="http://www.w3.org/1999/xlink" preserveAspectRatio="xMidYMid" width="15" height="15" viewBox="0 0 15 15">
  <defs>
    <style>
      .cls-1 {
        fill: hsl(233.8, 20.2%, 37.8%);
        fill-rule: evenodd;
      }
    </style>
  </defs>
  <path d="M7.500,-0.001 C3.375,-0.001 -0.000,3.374 -0.000,7.499 C-0.000,11.624 3.375,14.999 7.500,14.999 C11.625,14.999 15.000,11.624 15.000,7.499 C15.000,3.374 11.625,-0.001 7.500,-0.001 ZM7.500,2.249 C8.775,2.249 9.750,3.225 9.750,4.500 C9.750,5.774 8.775,6.749 7.500,6.749 C6.225,6.749 5.250,5.774 5.250,4.500 C5.250,3.225 6.225,2.249 7.500,2.249 ZM7.500,12.899 C5.625,12.899 3.975,11.924 3.000,10.499 C3.000,8.999 6.000,8.174 7.500,8.174 C9.000,8.174 12.000,8.999 12.000,10.499 C11.025,11.924 9.375,12.899 7.500,12.899 Z" class="cls-1"/>
</svg>
